<?xml version="1.0" encoding="UTF-8" standalone="no"?>
<!-- Created with Inkscape (http://www.inkscape.org/) -->

<svg
   xmlns:dc="http://purl.org/dc/elements/1.1/"
   xmlns:cc="http://creativecommons.org/ns#"
   xmlns:rdf="http://www.w3.org/1999/02/22-rdf-syntax-ns#"
   xmlns:svg="http://www.w3.org/2000/svg"
   xmlns="http://www.w3.org/2000/svg"
   xmlns:sodipodi="http://sodipodi.sourceforge.net/DTD/sodipodi-0.dtd"
   xmlns:inkscape="http://www.inkscape.org/namespaces/inkscape"
   width="280.55737"
   height="262.21851"
   id="svg3051"
   version="1.1"
   inkscape:version="0.48.1 "
   sodipodi:docname="Neues Dokument 4">
  <title
     id="title3091">Tomato</title>
  <defs
     id="defs3053" />
  <sodipodi:namedview
     pagecolor="#ffffff"
     bordercolor="#666666"
     borderopacity="1.0"
     inkscape:pageopacity="0.0"
     inkscape:pageshadow="2"
     inkscape:zoom="0.8"
     inkscape:cx="50.265574"
     inkscape:cy="93.732024"
     inkscape:document-units="pt"
     inkscape:current-layer="layer1"
     id="namedview3055"
     showgrid="false"
     units="pt"
     fit-margin-top="0"
     fit-margin-left="0"
     fit-margin-right="0"
     fit-margin-bottom="0"
     inkscape:window-width="1920"
     inkscape:window-height="1058"
     inkscape:window-x="1912"
     inkscape:window-y="-8"
     inkscape:window-maximized="1" />
  <metadata
     id="metadata3057">
    <rdf:RDF>
      <cc:Work
         rdf:about="">
        <dc:format>image/svg+xml</dc:format>
        <dc:type
           rdf:resource="http://purl.org/dc/dcmitype/StillImage" />
        <cc:license
           rdf:resource="" />
        <dc:title>Tomato</dc:title>
        <dc:date>2015</dc:date>
        <dc:creator>
          <cc:Agent>
            <dc:title>arking</dc:title>
          </cc:Agent>
        </dc:creator>
        <dc:description>vectorized from picture</dc:description>
        <dc:subject>
          <rdf:Bag>
            <rdf:li>tomato</rdf:li>
          </rdf:Bag>
        </dc:subject>
      </cc:Work>
    </rdf:RDF>
  </metadata>
  <g
     inkscape:label="Layer 1"
     inkscape:groupmode="layer"
     id="layer1"
     transform="translate(-42.541425,-38.236567)">
    <g
       id="g3071"
       transform="matrix(-0.4743838,0.08179302,0.08179302,0.4743838,266.4957,52.045302)">
      <path
         style="fill:#f9aa98"
         d="m 162,481.95341 c -32.39414,-1.35894 -56.52983,-4.71662 -72.05169,-10.02361 -8.7531,-2.99272 -12.65855,-5.05227 -18.82808,-9.929 -5.48066,-4.33221 -16.4167,-9.99866 -19.29966,-10.00001 -11.67182,-0.005 -27.92332,-14.858 -21.73791,-19.86664 2.20065,-1.78198 2.20065,-1.78198 -11.55425,-15.20806 C -3.19194,395.72495 -12.87598,382.51889 -32.01531,348 c -5.64163,-10.175 -12.46064,-22.12239 -15.15337,-26.54976 -2.84968,-4.68543 -6.50505,-12.83527 -8.74614,-19.5 -2.11765,-6.29763 -6.84336,-19.22194 -10.50157,-28.72067 C -86.35275,221.46376 -82.43024,176.1612 -51.77783,104.16323 -42.292,81.88242 -24.15031,63.57621 -0.41139,52.33098 7.92848,48.38035 9.49443,47.19925 13.69228,41.69346 23.85571,28.36336 32.12795,19.28895 38.42337,14.564149 45.83459,9.001924 45.67534,9.468821 43.09933,0.855335 c -4.45071,-14.881948 -3.52764,-26.492738 3.1561,-39.698724 2.36912,-4.681006 4.80039,-8.675219 5.40283,-8.87603 2.58976,-0.863254 1.91643,3.021435 -1.79425,10.351628 -5.26495,10.400577 -5.23715,20.132691 0.0932,32.617791 3.75573,8.796942 3.75439,8.796363 11.11523,4.812347 25.22495,-13.652886 52.18754,-23.373438 80.37607,-28.977182 22.9935,-4.570998 36.47955,-15.167674 36.54174,-28.71272 0.005,-1.170156 0.70384,-2.703584 1.55215,-3.407619 2.60304,-2.160327 3.71156,0.314148 4.36041,9.733413 0.34563,5.017382 1.03432,8.707363 1.60176,8.582209 0.5475,-0.120753 6.89066,-2.705676 14.09591,-5.744274 42.06239,-17.738546 91.81299,-15.970808 144.89954,5.148569 31.55673,12.554187 72.43967,42.370944 85.3163,62.222907 1.99506,3.07579 7.32474,9.73213 11.84374,14.79185 51.81668,58.01689 77.00592,171.59885 53.73534,242.3005 -12.58839,38.24659 -54.04768,93.07223 -100.32692,132.67201 -16.8727,14.43748 -16.26786,13.61203 -11.19975,15.28466 20.43168,6.74306 13.73006,18.44203 -14.36871,25.08335 -20.16847,4.76695 -25.36296,6.67418 -32.72802,12.01659 -12.12675,8.7964 -18.84966,11.12213 -42.84193,14.8208 -24.56484,3.78692 -89.26382,7.84263 -110.93005,6.95373 -1.925,-0.079 -11.375,-0.47396 -21,-0.87773 z m 29.5,-341.56706 c 4.4,-1.45036 10.25,-3.44213 13,-4.42616 2.75,-0.98402 6.55337,-2.05955 8.45193,-2.39005 3.3266,-0.57909 8.04807,-3.98141 8.04807,-5.79948 0,-1.11815 -9.60093,-5.38957 -15.39166,-6.8477 -4.3655,-1.09924 -26.31985,7.62373 -28.84303,11.46001 -5.40269,8.21434 1.96086,12.21397 14.73469,8.00338 z M 59.91809,135.89461 C 67.1724,134.67629 71,132.7785 71,130.40002 c 0,-0.85462 1.35,-2.90387 3,-4.55387 1.65,-1.65 3,-3.19038 3,-3.42307 0,-1.38949 -12.60929,1.37965 -22.87573,5.02374 -5.44094,1.93128 -6.20945,1.93873 -5.4859,0.0532 0.659,-1.71733 -2.13519,-2.12318 -3.16341,-0.45948 -0.35369,0.57229 -2.42185,2.16341 -4.5959,3.53582 -3.54616,2.2386 -4.59586,5.29643 -1.39674,4.06882 0.70401,-0.27015 3.02099,0.12942 5.14885,0.88793 4.78831,1.70689 6.96899,1.75846 15.28692,0.36152 z m 34.78858,-1.00128 c 0.74078,-0.74078 2.87333,-0.84444 6.45,-0.31353 2.93883,0.43623 5.79333,0.65407 6.34333,0.48408 0.55,-0.16999 2.74817,-0.44958 4.88482,-0.6213 4.44078,-0.35691 6.14748,-1.61305 5.27627,-3.88337 C 116.52771,127.60565 91,130.81978 91,133.91604 c 0,2.05117 2.08347,2.60049 3.70667,0.97729 z m 142.70358,-5.93832 c 7.51763,-2.32196 13.09871,-8.33926 10.9274,-11.78149 -2.18252,-3.46003 -14.72107,-3.82631 -17.473,-0.51043 -0.73498,0.88559 -3.2552,2.43269 -5.60049,3.438 -11.12583,4.76909 -0.26384,12.68695 12.14609,8.85392 z M 27.23565,84.05658 C 29.58104,83.5377 34.65,82.59931 38.5,81.97128 c 3.85,-0.62804 8.7941,-1.441 10.98689,-1.80658 2.70769,-0.45143 4.09747,-1.23992 4.33157,-2.45752 0.35607,-1.85207 6.96782,-9.11776 8.93052,-9.8138 2.93193,-1.03976 1.77229,-14.24294 -1.32506,-15.08655 -18.52602,-5.04579 -47.51398,2.78168 -45.8904,12.39156 0.54032,3.19816 0.20587,4.58826 -1.83032,7.60742 -2.11339,3.13363 -3.01051,9.06176 -1.80754,11.94419 0.27252,0.65297 11.5606,0.14271 15.33999,-0.69342 z M 321.01728,30.56966 c 0.0288,-1.78588 4.75663,-5.7445 5.47414,-4.58354 1.01025,1.63462 2.28082,0.3172 4.4725,-4.63745 1.38107,-3.12215 2.475,-4.39422 3.45535,-4.01802 1.62444,0.62335 4.04742,-1.76651 3.19286,-3.149225 C 337.06571,13.29731 322.49992,11.836063 312.5,11.662164 296.64528,11.38645 269.50571,31.14224 273.5175,40.03882 c 2.09909,4.65494 11.51727,9.68367 15.4825,8.2667 7.39417,-1.886489 31.00938,-12.666181 32.01728,-17.73586 z M 105.33291,7.206621 C 107.991,5.992979 110.78235,5 111.5359,5 c 1.56943,0 3.4503,-5.904412 3.45852,-10.856989 0.005,-2.801661 -0.28391,-3.239658 -1.74442,-2.647717 -0.9625,0.390099 -2.9875,1.157266 -4.5,1.704814 -1.90958,0.691296 -2.75,1.695374 -2.75,3.285505 0,1.25948 -1.575,4.57961 -3.5,7.378068 -3.45437,5.02177 -4.21572,6.662478 -2.75,5.926273 0.4125,-0.207192 2.92481,-1.369692 5.58291,-2.583333 z m 26.98964,-13.914982 c 1.17886,-0.664599 2.71008,-1.98336 3.4027,-2.93058 1.42324,-1.946396 13.7922,-2.788007 16.00818,-1.08923 1.27664,0.978684 2.24338,-0.753815 3.6392,-6.521829 0.86532,-3.575833 -1.06278,-3.623544 -11.87263,-0.29379 -4.4,1.355331 -10.7,3.062535 -14,3.793788 -6.44441,1.428028 -7.74143,3.667622 -6.04302,10.434635 0.60435,2.407888 0.60435,2.407888 3.66327,0.111627 1.6824,-1.262943 4.02344,-2.840023 5.2023,-3.504621 z m 75.98463,-15.226668 c 2.30605,-0.514265 8.46782,-1.482696 13.69282,-2.152068 11.73183,-1.502959 14,-2.291165 14,-4.865099 C 236,-32.020379 219.81218,-40 213.58792,-40 209.077,-40 192,-26.467864 192,-22.893326 c 0,1.821394 9.84312,2.399828 16.30718,0.958297 z M 264,-32.153791 c 4.675,-1.08914 10.19661,-2.625094 12.27024,-3.413232 C 278.34387,-36.35516 281.40792,-37 283.07925,-37 c 1.92306,0 2.79348,-0.396912 2.37067,-1.081027 -0.36746,-0.594565 -1.71644,-0.817913 -2.99773,-0.49633 -1.28129,0.321584 -2.59241,0.159493 -2.9136,-0.360201 -1.7712,-2.865865 -24.12439,-8.562302 -33.53859,-8.546899 -15.4058,0.0252 -21.09603,1.940681 -12.98456,4.370936 3.95065,1.183644 4.48746,1.774134 10.40605,11.446693 2.004,3.275057 4.70483,3.211146 20.57851,-0.486963 z"
         id="path3083"
         inkscape:connector-curvature="0"
         sodipodi:nodetypes="csscssssssssssssssssscssssssssssssscccssssssscsssssssssccsssssssssssssssssssssscssssssccsscsssssssssssssssssssssssssssssss" />
      <path
         style="fill:#f08d6d"
         d="m 162,475.37888 c -62.599562,-3.9884 -125.096548,-31.39776 -163.345001,-82.401 -20.685285,-26.99453 -37.318161,-57.09911 -52.148196,-87.57276 -13.203456,-34.48718 -27.476232,-70.07727 -23.567958,-107.86316 3.2204,-40.12263 17.914724,-79.21157 38.214501,-113.707414 18.547797,-26.585373 54.265359,-32.030705 70.329012,-61.382503 27.324517,-11.840499 -0.946755,-40.989416 15.963193,-60.138312 -8.039317,19.5924 3.210607,57.583944 27.114559,32.0726392 27.68187,-12.0020492 56.69196,-22.1923912 86.61388,-26.1615392 12.93933,-6.163358 22.94813,-47.569999 22.04229,-12.691898 22.93977,-1.464118 52.13481,-18.413439 79.38843,-14.835813 70.01334,0.622447 138.82482,36.820541 178.78799,94.25744 38.87466,41.5989 51.59878,99.87422 60.56541,154.34957 C 510.6548,244.17712 491.42342,300.12914 456.14228,342.204 417.62334,390.13085 371.81086,436.76397 311.1964,454.72955 263.41982,470.74358 212.24046,476.81826 162,475.37888 z m 7.25,-305.70252 c 5.38487,-17.25782 -21.73163,-7.27871 -5.0296,4.09023 l 1.66965,-1.48156 3.35995,-2.60867 z m -95.41471,-9.58821 c 16.891206,-3.70861 53.57416,-10.80798 44.90104,-33.03532 -12.47958,-2.3984 -34.499311,2.87803 -28.928624,-10.32055 -25.250386,-4.81169 -52.039823,6.01921 -70.382018,23.0313 12.419457,7.42747 14.175937,20.10586 35.816572,10.1865 15.395824,-8.66226 9.601834,10.66926 18.59303,10.13807 z m 134.00196,-4.05988 c 25.19283,-9.85213 51.29975,-16.50788 77.92766,-20.83228 24.12603,-20.20064 -29.16665,-56.202689 -45.28391,-29.15924 -16.61945,23.27705 -56.01579,1.4606 -66.96373,30.93461 0.0621,14.40853 22.66348,22.99034 34.31998,19.05691 z M 9.5,100.55193 C 27.854178,91.954644 65.958829,86.884691 74.039947,83.066565 62.917286,69.645828 71.887442,19.614265 48,41.23207 60.088875,59.073516 1.8719589,42.487755 3.1014307,70.144326 3.5733475,79.927924 -14.316265,109.47382 9.5,100.55193 z M 284.56013,65.42182 C 310.1545,68.74308 336.02229,50.734399 362.90719,49.788094 395.05041,38.550548 363.94032,0.40853582 338.25,9.26882 306.76805,7.7079205 352.65136,-6.0659955 356.59382,-8.545864 332.95142,-17.843953 309.19946,2.255866 287.10417,9.8495056 272.51597,14.777717 263.19108,29.959938 264.40761,40.52584 c 19.99087,8.137055 -26.38693,19.817924 3.09239,24.53708 5.10245,2.480674 12.68744,6.243278 17.06013,0.3589 z M 83.97199,65.01429 C 113.6111,64.357295 66.923996,31.366861 70.278513,58.776626 71.673035,65.066778 78.151796,69.482425 83.97199,65.01429 z M 110,25.08193 c 9.06088,-7.055642 10.77758,-53.866862 -6,-29.231573 -4.572247,12.3808345 -32.663579,38.783981 -0.78812,30.802581 L 106.90114,25.969832 110,25.08193 l 0,0 z M 84.04627,11 C 97.250887,2.3296997 105.7827,-12.119719 83.33701,0.993676 67.93242,1.1531819 57.51002,25.498401 77.47303,18.19569 L 80.630297,14.557484 84.04627,11 z m 52.6776,5.9126 c 17.67915,1.679717 21.38149,-32.057094 17.88281,-39.9126 -23.29172,-0.264552 -42.18362,11.405667 -31.61422,36.410348 -2.21306,9.889149 9.55268,5.305683 13.73141,3.502252 z M 193.89483,0.25 c 14.60198,-6.672258 39.49865,2.4983539 51.25511,-13.406108 -3.83116,-31.822312 -50.99767,-36.802023 -61.7593,-6.490815 -1.53463,5.125691 1.81719,26.6116973 10.50419,19.896923 z m 80.54559,-18.219624 c 20.4652,-8.39628 48.16538,0.09379 64.9859,-4.941777 -21.99721,-20.543647 -55.61927,-18.962212 -83.00385,-27.228944 -12.11909,-1.945527 -49.9705,2.555673 -19.9915,10.589258 10.26257,16.724401 14.72386,33.9694783 38.00945,21.581463 z"
         id="path3081"
         inkscape:connector-curvature="0" />
      <path
         style="fill:#e84c29"
         d="M 158.5,473.93773 C 96.512568,469.29464 35.105808,441.19709 -2.1341257,390.21984 -21.935636,363.92494 -37.937382,334.75201 -52.865113,305.59194 -63.79496,273.74945 -78.709444,242.11964 -76.168228,207.49056 -75.346324,163.93901 -60.058483,121.22255 -37.974645,84.090563 -19.754005,57.691388 15.655248,53.052978 31.152445,23.826913 54.63039,19.402839 39.302791,-12.687796 44.27197,-15.741979 47.946011,3.3014054 57.903714,13.990361 73,-3.266581 c 27.60498,-15.90489 59.09941,-21.497082 89.60572,-28.602907 12.51008,-7.829752 20.70265,-45.27496 20.63445,-11.068012 20.52901,-1.853255 51.82756,-19.247593 78.60925,-15.696938 63.60534,1.58394 127.92511,29.820283 167.82494,80.085208 22.48584,25.366069 41.9515,53.748412 52.49533,86.34565 22.70276,62.77138 32.14611,137.19849 -2.29394,197.61707 -22.02185,18.56146 -29.87442,47.80698 -50.96073,67.69516 -32.49504,35.52199 -71.60121,66.28484 -118.25125,80.45138 -48.58462,16.0139 -101.06086,22.97664 -152.16377,20.3777 z M 128.04788,194.5 c -1.80422,-12.622 19.3131,-38.14318 9.78005,-41.25934 -11.26359,13.71444 -19.91972,45.52916 -12.81573,55.52106 1.14834,-4.72427 2.05371,-9.50168 3.03568,-14.26172 z m -73.79797,5.97144 c 7.90713,-8.95827 17.320207,9.25862 23.966838,-11.07728 5.665285,-9.59964 31.373502,-20.92254 5.964762,-19.43874 21.85668,0.55974 48.63123,-25.63812 34.1796,-44.74049 -17.32621,-0.1315 -22.94884,-1.52568 -27.349969,-13.2395 -26.783055,-0.25768 -52.840485,11.26957 -76.430486,23.27572 -20.8008649,12.61717 19.963515,5.87946 6.907925,24.37176 -1.570427,16.37918 -7.045224,36.71256 16.661016,33.47388 -8.415293,0.10871 16.536692,15.55753 16.100314,7.37465 z m 113.66223,-6.10675 c 34.25221,-20.39712 68.54914,-45.76666 109.96301,-47.7947 28.60045,3.79443 30.59831,-18.33425 22.3935,-39.4836 -11.29723,-35.337025 31.84658,-35.37488 55.1256,-35.72787 32.94572,8.058544 38.08991,-48.216165 11.75066,-58.88853 C 354.56448,6.8425986 318.58478,7.1989948 350.45848,-3.1804193 375.82399,-6.7501428 334.39374,-31.137173 324.89499,-35.571013 298.28512,-41.22143 274.15325,-58.07784 246.16133,-53.730404 c -11.77006,1.304134 -44.13643,8.642445 -13.62724,12.673502 15.29922,12.612982 18.49897,49.9896962 44.87324,30.536327 13.15851,-7.835878 47.44848,0.41561 19.44399,12.9492141 -12.40346,9.1487999 -67.79129,33.3031459 -32.29251,41.0380209 -6.28665,6.916895 -19.31113,26.000309 -9.72135,42.300457 -9.3679,23.352753 -37.93786,32.758003 -62.39732,33.262043 -23.89574,0.084 -22.46145,25.10298 -16.40461,37.57324 -29.07735,-19.87334 -27.74803,45.83904 -8.12339,37.76229 z M 3,124 C 20.190782,118.93246 10.274007,100.84912 34,99.57996 56.992116,89.668254 83.085395,90.220032 106.76119,87.247881 91.51935,82.821104 100.17208,81.621298 105.82645,78.624726 99.192836,73.937609 70.054687,72.591129 84.707762,85.344578 50.566021,81.161425 87.453043,29.573224 51.790462,33.177399 36.544631,36.30343 49.415816,52.142514 29.585994,48.435706 -3.6942368,51.04572 -10.288353,87.316179 -7.9490463,114.26214 -8.0626572,118.96702 -2.9220905,130.00432 3,124 z M 88.55887,71.4682 C 78.889073,63.655231 114.41263,70.575292 96.52491,54.83343 87.163692,47.436744 78.105098,35.009719 69.762829,53.873607 63.556408,64.825929 87.617352,73.037936 88.55887,71.4682 z m 57.59979,-18.15263 c 5.01035,-3.911617 28.48399,-19.672567 4.37909,-16.806223 -12.59685,-0.681862 -12.06499,29.021374 -4.37909,16.806223 z M 114.81488,33.22355 C 112.99654,18.609536 128.49177,-31.404942 100.96063,-7.315023 104.10103,6.9940925 64.82212,33.778472 102,34.51417 c 3.86818,-0.10495 11.9915,6.153683 12.81488,-1.29062 z M 134,27.27809 c 23.50401,0.656285 22.66595,-38.682083 20.76496,-52.343096 -24.98076,-1.114475 -42.729,12.544777 -33.21855,38.293561 1.19713,7.698793 0.7473,21.953441 12.45359,14.049535 z M 78.0275,20.93362 C 86.71734,10.998859 116.21721,-16.914138 83.74787,-2.537307 68.817677,1.8344689 45.151027,18.573986 78.0275,20.93362 z M 215.42645,10.726377 c 16.76901,7.215552 43.76642,-28.428984 20.47905,-43.486945 -21.06792,-11.69279 -25.15067,-17.792171 -44.39904,-1.720594 -20.55002,11.400133 -11.34297,62.301649 20.17926,46.960576 l 2.31285,-0.680911 1.42788,-1.072126 0,0 z"
         id="path3079"
         inkscape:connector-curvature="0" />
      <path
         style="fill:#dd2b0b"
         d="M 167.5,474.40828 C 113.73748,470.23218 57.57656,452.10454 19.991084,411.9856 c -2.215897,-13.61906 4.175622,9.00171 8.139341,-3.74726 14.195127,6.44267 30.613769,6.11535 21.8369,-13.94663 -1.545175,-23.51398 11.712989,-50.90325 -12.32068,-67.12197 18.224445,-3.60217 -9.015779,-29.56775 -15.153319,-33.93863 -9.961004,-1.62869 -39.66368,-14.19954 -39.49034,8.29407 -10.04447,-2.7031 -22.947568,-23.90327 -20.826947,0.66642 -8.344602,31.18923 -23.524447,-11.62652 -14.029303,-24.62286 2.179083,-17.09749 -18.327871,2.86831 -17.143399,-18.16813 -6.338562,-27.25846 -5.650804,-56.12689 -3.132633,-83.86767 6.301894,-33.12902 19.068437,-65.74225 37.554365,-93.801119 9.645031,-0.77236 -0.317605,28.698559 13.829404,33.915309 -7.560568,10.83532 -29.865131,43.12544 -5.682035,24.81475 18.2875994,-7.47859 19.9793675,13.03563 32.4378576,12.66885 C 20.65047,172.69837 -18.015272,206.13796 20.123796,210.01616 39.986357,238.55458 71.20618,221.89535 82.854319,195.30955 99.909272,176.19802 126.10478,162.46661 127.27881,134.03687 131.95755,117.02411 95.25927,122.64694 106.3812,111.53388 79.908282,106.3539 53.831719,115.72873 28.841764,123.23013 20.900298,105.28682 63.205224,92.358482 81.187251,93.278365 87.832848,89.74898 116.22826,89.406623 97.166555,81.469384 122.95203,77.90614 64.67346,68.646419 84.727148,85.37505 55.827475,74.34821 79.642545,30.970583 49.815169,19.619445 43.96591,10.778489 39.092355,-32.026158 48.632524,-3.2151011 55.968691,22.080848 85.765525,30.068471 95.144475,1.6686873 116.78416,-12.425673 64.000259,32.203053 96.531002,35.106748 129.91902,53.669459 109.62644,-10.192593 120.09733,-3.0801728 116.62252,15.802783 133.41141,72.66494 152.34841,47.654154 c 22.41751,-8.537683 -14.41281,-18.24242 -2.05358,-36.671295 2.57637,-19.2778029 19.72257,-65.48173 32.47438,-62.607271 5.04001,21.477485 -14.10297,63.180841 10.25001,71.646995 22.10287,0.882413 -12.68744,29.452555 9.47506,16.20518 7.49969,-27.0399798 43.09397,-25.716516 43.87386,-55.502143 5.27312,28.5738616 27.39889,13.5739839 44.52651,11.8124161 1.79506,21.0048459 -39.32599,27.6585209 -48.2082,49.9790289 -2.44307,5.092616 15.48307,4.414676 3.31324,14.54033 -4.96685,5.750909 -25.70632,27.047816 -4.90945,15.498375 23.10249,28.49865 -30.52444,46.29384 -53.79034,42.23714 -27.48053,0.29109 -11.18813,40.63828 -34.1547,40.51926 -0.31005,15.1158 -16.10163,51.17013 -5.54305,51.75612 26.77375,8.45773 43.00244,-27.07479 68.55644,-35.20491 25.49886,-17.88466 57.0517,-16.5768 85.99043,-23.47996 24.07157,-11.46199 -9.90576,-58.606138 25.14374,-68.33707 27.03881,-3.058942 66.80395,4.378999 62.58748,-35.667919 C 397.08417,16.733529 363.77735,11.787388 361.3255,-7.9889909 350.15587,-35.490502 318.83822,-42.620227 297.07477,-52.966877 c 24.52274,2.698195 49.98537,12.547356 72.16832,24.68561 44.72102,25.0821545 78.23583,66.771996 102.33635,111.232948 20.49827,50.219869 35.67694,104.829349 28.84881,159.503629 -15.78664,31.02525 -60.50092,15.96921 -80.39795,43.04104 -31.08103,10.99329 -59.03444,20.06064 -86.79083,35.91811 -7.40455,19.44133 -9.59979,-9.39151 -20.32212,10.26514 -6.96025,9.68106 18.84741,0.66845 -0.17509,10.572 -7.68457,9.23561 28.70554,-1.65993 37.13511,5.97343 18.62356,5.39771 50.90944,-11.58752 57.79713,14.73698 13.73975,-22.64887 36.38289,1.07389 14.62019,14.67729 -40.86122,49.4704 -101.24745,78.85854 -163.89234,88.97212 -29.89768,5.84742 -60.4252,8.91314 -90.90235,7.79686 z M 154.76533,371.65595 c 8.06152,-8.0397 22.95856,-7.69627 17.18736,-17.87134 15.48367,-21.49169 -22.69063,-36.62126 -13.11582,-61.99304 -0.61577,-18.87134 3.39834,-46.47381 -0.61015,-59.59649 -17.98027,22.15768 -33.03074,47.88978 -21.04432,77.80957 -5.25266,17.51662 -2.93833,27.66817 3.97705,43.30273 -1.58424,12.4478 -4.51649,9.1447 7.29887,10.43671 0.90635,9.79411 -6.29313,12.2751 6.30701,7.91186 z M 126.74861,221.28072 c -4.50551,-25.86642 26.3624,-52.4355 17.01357,-73.26805 -23.43385,12.99527 -26.97041,45.0665 -23.2594,69.51875 0.3383,4.7103 2.99512,15.10149 6.24583,3.7493 z m 16.31713,5.6841 c 12.82359,-27.25185 -35.39569,-4.08579 0,0 z M 106.87017,67.73993 c -5.2232,-20.133032 -45.380809,-34.526914 -33.55021,-4.428841 1.91597,9.062488 54.28302,20.769493 33.55021,4.428841 z M 16.31305,45.37342 C 18.053337,33.586169 43.360049,16.901155 25.181364,37.079346 32.89907,41.863788 20.899847,49.26747 16.31305,45.37342 z m 221.4099,-77.308833 c -11.45976,-6.325866 -34.97163,-15.117249 -7.74289,-10.804151 3.03627,-1.16789 16.67304,16.495044 7.74289,10.804151 z"
         id="path3077"
         inkscape:connector-curvature="0" />
      <path
         style="fill:#af1e09"
         d="m 167.5,474.40828 c -40.67768,-4.19764 -82.818796,-12.72013 -116.38955,-37.47577 21.412987,1.00614 42.343593,-4.0263 63.29285,-5.79061 20.93848,-7.4433 42.50392,-8.89476 64.31274,-11.84453 24.43448,-9.54631 50.18086,1.08915 74.97684,-4.88194 9.95183,-0.46395 15.08206,-6.97855 16.29203,-5.32413 11.42802,-7.27821 13.68944,-1.62419 16.01728,-3.35709 11.70617,-8.78806 16.3232,16.65308 22.09246,-1.96294 -2.60501,-2.29529 17.78264,-5.48725 22.87246,-13.25975 10.89575,-0.69106 19.71146,-2.04696 15.23069,-8.10352 11.93991,6.45921 22.81824,-12.96067 39.17403,-7.77578 10.33366,-7.23543 13.09298,-18.44741 29.5806,-12.2378 6.49495,-9.57556 21.29343,-9.20636 13.43155,5.7763 -12.79196,25.0462 -37.79876,40.2921 -59.57904,56.81553 -50.62097,33.90639 -112.71238,44.9445 -172.43195,49.26011 -9.61711,0.43419 -19.25171,0.50052 -28.87299,0.16192 z M 347,288.52305 c -7.52429,-6.99355 4.78056,-19.76324 3.134,-20.55117 21.0766,1.29594 31.03467,-14.49222 48.4017,-16.48458 4.1446,-12.98042 21.37424,-28.76311 24.56099,-37.52057 8.72061,1.18618 -19.13251,-14.93154 3.29838,-14.67927 24.26068,-5.9568 9.395,-35.06428 9.72061,-53.39877 0.45198,-22.01683 13.32158,-33.70891 12.73163,-49.698215 7.09658,-21.267954 -1.29445,-41.009867 -10.07647,-60.204079 27.74656,27.005277 41.6715,65.464044 52.07793,102.089164 7.02566,32.57536 15.09753,66.58161 10.18236,99.95909 -5.21759,26.5989 -38.30557,26.40033 -58.62768,29.73974 -3.93965,-13.26628 -24.67772,-9.7822 -21.61185,4.42625 -7.06975,-16.19039 -4.68775,8.94707 -19.56032,3.1582 -13.87681,5.3226 -31.09649,2.0556 -38.62704,6.35422 -1.85568,7.53803 -10.59003,4.20993 -15.60424,6.80999 z M 136.63029,142.75 C 141.67447,118.82646 88.055524,116.54603 104.81011,101.86792 103.80251,93.443725 87.484249,85.735403 105.1703,87.507628 85.367357,79.325934 115.81837,81.446695 99.437042,76.207843 92.858661,72.279589 72.471316,76.611782 84.727148,85.37502 54.889066,76.46235 81.685884,32.910799 51.376689,22.746902 43.282251,12.508045 38.884597,-33.254535 49.890654,-1.2473647 58.075936,24.688178 83.500542,26.932249 94.856226,2.328735 117.17492,-12.733703 65.348225,29.809473 94.227138,34.160654 125.67256,49.896579 113.31667,10.659165 118.27131,-5.9185168 c 2.75547,11.7683803 4.59332,58.7073028 25.54637,60.3439448 12.49984,-5.998804 25.39785,-15.905545 6.24449,-22.747467 -1.87057,-22.8697554 6.37146,-47.836634 17.03464,-68.219622 4.74958,-6.278849 18.71424,-33.472681 15.42407,-8.700412 0.86968,28.027017 -6.28703,60.114856 11.34934,84.382013 C 209.97371,37.031861 211.08193,8.643556 230.14964,9.6466477 244.3948,2.039734 246.18722,-35.630778 254.67985,-4.5652784 264.88876,18.025952 227.29966,45.966431 238.27735,56.210408 222.41898,74.059255 240.15528,108.76837 206.35051,109.61066 173.64496,105.26054 164.06288,143.40869 136.63029,142.75 z M 106.87017,67.73993 C 101.63517,49.772359 64.891475,31.557949 72.227121,61.513368 73.134148,72.852794 126.16511,84.177717 106.87017,67.73993 z M 421.65723,22.06388 c -20.06905,-18.6911894 15.16995,-6.534371 10.14662,7.696153 -4.38539,-0.611715 -7.46837,-4.569787 -10.14662,-7.696153 z M 237.72295,-31.935413 c -7.60586,-4.759354 -35.98817,-15.686757 -10.12434,-10.364268 4.00729,-4.668931 19.7311,16.789719 10.12434,10.364268 z"
         id="path3075"
         inkscape:connector-curvature="0"
         sodipodi:nodetypes="cccccccccccccccccccccccccccccccccccccccccccccccccccccccccccc" />
      <path
         style="fill:#47530c"
         d="m 136.5,124.34626 c -6.6,-3.01054 -13.125,-6.51867 -14.5,-7.79583 -1.375,-1.27716 -3.9625,-3.06004 -5.75,-3.96195 -3.78727,-1.91093 -3.9644,-2.63198 -1.25,-5.08848 4.66302,-4.21998 1.7313,-7.94519 -11.5,-14.61253 -10,-5.03907 -10,-5.03907 -3.75039,-4.55813 5.97906,0.46011 9.37551,-0.71059 5.56377,-1.91776 -8.87779,-2.81156 -11.28835,-5.38088 -5.06338,-5.39684 11.74834,-0.0301 5.6023,-4.52818 -7.44029,-5.44527 -11.9019,-0.83689 -16.35118,2.19493 -10.30092,7.01924 4.04771,3.22753 2.72213,3.82051 -2.56266,1.14636 C 69.45831,78.42814 65.07302,64.41121 69.07905,49 70.6774,42.85112 70.2397,39.19516 67.75,37.89899 59.6471,33.68052 49.98292,21.98226 48.42598,14.50773 48.0814,12.853479 46.49459,7.05398 44.89974,1.619955 41.98878,-8.298322 41.1344,-17.346995 43,-18.5 c 0.56223,-0.347475 1,0.449335 1,1.82014 0,2.177854 2.41276,8.500773 6.55564,17.17986 7.14297,14.96405 24.41579,27.81161 27.47186,20.43362 1.72416,-4.1625 20.14711,-22.376759 24.03926,-23.766953 2.80889,-1.003277 0.0851,3.088782 -9.83268,14.772095 C 79.19649,27.29723 79.7247,28.52324 102.37994,35.48797 c 15.04271,4.62447 14.11876,5.69024 14.12541,-16.29376 0.005,-17.05857 0.87492,-26.693161 2.50039,-27.697757 1.23148,-0.761098 1.94309,5.187406 1.93055,16.137966 -0.0278,24.301741 4.08616,35.595291 15.10616,41.468891 3.77398,2.01151 5.95755,3.81244 5.95755,4.91357 0,1.99974 2.713,4.60345 3.73343,3.58302 0.3768,-0.3768 0.56109,-2.40267 0.40951,-4.50193 -0.27325,-3.78462 -0.24005,-3.82161 3.9323,-4.38124 13.34073,-1.78936 17.03603,-13.32223 4.02092,-12.54914 -6.45748,0.38357 -6.55792,-0.1818 -3.494,-19.66759 4.83302,-30.736805 10.29428,-46.867795 19.19998,-56.711211 5.47979,-6.056787 8.38677,-11.192559 9.64439,-17.038789 2.55449,-11.874873 3.67703,5.575683 2.36402,36.75 -1.22943,29.190038 -0.72318,33.240469 6.24744,49.98465 5.35745,12.86918 7.01701,14.00393 12.17901,8.3276 9.87379,-10.8576 13.93397,-16.84841 14.60686,-21.55249 0.75935,-5.308556 2.69528,-6.602121 4.15088,-2.773586 1.00705,2.648736 1.00705,2.648736 4.19742,0.376994 12.373,-8.810349 23.7955,-21.861005 23.80356,-27.196501 0.006,-3.811071 1.86015,-3.019434 4.43803,1.894582 2.86211,5.455847 2.80401,25.813704 -0.0864,30.266551 -1.01605,1.56529 -5.37387,8.1329 -9.68406,14.59468 C 231.67517,48.39658 226.24683,59.0399 225.048,66 c -2.18152,12.66533 -3.4198,16.71201 -8.13532,26.58614 -5.60871,11.74443 -5.22922,11.43969 -20.41269,16.39212 -10.10659,3.29649 -21.60726,8.65821 -35.71531,16.6508 -9.5472,5.40876 -9.6237,5.40471 -24.28469,-1.2828 z M 113.75757,73.75 c -0.225,-0.6875 -3.16349,-3.5 -6.52996,-6.25 C 100.37336,61.90092 96.71074,57.61046 96.51479,54.95082 96.34351,52.62585 94.13253,50 92.34617,50 91.57125,50 90.67821,49.325 90.36163,48.5 89.66364,46.68108 87.32835,46.51961 86.74595,48.25 86.05418,50.30538 83.1199,47.2575 83.69035,45.07609 84.32163,42.66208 82.03037,41.24707 80.5983,43.16654 79.99423,43.9762 78.18373,44.60745 76.57496,44.56932 70.22068,44.41873 66.95574,59.64119 72.25,64.734 c 6.71134,6.45596 43.26854,14.39668 41.50757,9.016 z M 237.72295,-31.935413 c -1.52645,-1.617275 -5.35107,-3.887969 -8.49916,-5.045987 -5.36568,-1.973759 -8.13761,-3.100523 -14.22379,-5.781842 -2.5,-1.101397 -2.5,-1.101397 0.41809,-1.169078 11.2162,-0.260141 20.75048,3.38226 23.63053,9.027627 2.71759,5.326907 2.13377,6.634563 -1.32567,2.96928 z"
         id="path3073"
         inkscape:connector-curvature="0" />
    </g>
  </g>
</svg>
