<?xml version="1.0" encoding="UTF-8" standalone="no"?>
<!-- Created with Inkscape (http://www.inkscape.org/) -->

<svg
   xmlns:dc="http://purl.org/dc/elements/1.1/"
   xmlns:cc="http://creativecommons.org/ns#"
   xmlns:rdf="http://www.w3.org/1999/02/22-rdf-syntax-ns#"
   xmlns:svg="http://www.w3.org/2000/svg"
   xmlns="http://www.w3.org/2000/svg"
   xmlns:sodipodi="http://sodipodi.sourceforge.net/DTD/sodipodi-0.dtd"
   xmlns:inkscape="http://www.inkscape.org/namespaces/inkscape"
   width="314.60181"
   height="235.88075"
   id="svg2"
   version="1.1"
   inkscape:version="0.48.1 "
   sodipodi:docname="Neues Dokument 1">
  <title
     id="title3041">Bananas</title>
  <defs
     id="defs4" />
  <sodipodi:namedview
     id="base"
     pagecolor="#ffffff"
     bordercolor="#666666"
     borderopacity="1.0"
     inkscape:pageopacity="0.0"
     inkscape:pageshadow="2"
     inkscape:zoom="0.7"
     inkscape:cx="346.13494"
     inkscape:cy="-257.51445"
     inkscape:document-units="px"
     inkscape:current-layer="layer1"
     showgrid="false"
     fit-margin-top="0"
     fit-margin-left="0"
     fit-margin-right="0"
     fit-margin-bottom="0"
     inkscape:window-width="1920"
     inkscape:window-height="1058"
     inkscape:window-x="1912"
     inkscape:window-y="-8"
     inkscape:window-maximized="1" />
  <metadata
     id="metadata7">
    <rdf:RDF>
      <cc:Work
         rdf:about="">
        <dc:format>image/svg+xml</dc:format>
        <dc:type
           rdf:resource="http://purl.org/dc/dcmitype/StillImage" />
        <dc:title>Bananas</dc:title>
        <dc:date>2015</dc:date>
        <dc:creator>
          <cc:Agent>
            <dc:title>arking</dc:title>
          </cc:Agent>
        </dc:creator>
        <dc:subject>
          <rdf:Bag>
            <rdf:li>banana</rdf:li>
          </rdf:Bag>
        </dc:subject>
        <dc:description>vectorized from picture</dc:description>
      </cc:Work>
    </rdf:RDF>
  </metadata>
  <g
     inkscape:label="Ebene 1"
     inkscape:groupmode="layer"
     id="layer1"
     transform="translate(878.51237,-83.750408)">
    <g
       id="g3025"
       transform="matrix(-0.21913272,0.15737571,0.15737571,0.21913272,-918.49025,187.04841)">
      <path
         style="fill:#f3cd5c"
         d="m -436.0714,856.55503 -9,-0.7915 -8,-2.1038 c -11.22058,-2.9506 -13.09254,-3.5221 -21,-6.4117 l -7,-2.5579 -3.03466,-0.021 -3.03466,-0.021 -5.84345,-2.0538 -5.84345,-2.0538 -5.81118,-5.1152 -5.81117,-5.1152 -2.67214,-6.081 c -1.46967,-3.3446 -4.00177,-7.7792 -5.62689,-9.8547 -2.60754,-3.3303 -6.37905,-10.7161 -8.1933,-16.0453 l -0.61925,-1.8189 -2.25492,0.6612 c -1.24021,0.3637 -3.99609,1.5405 -6.12418,2.6151 -2.12809,1.0746 -9.32809,3.7911 -16,6.0367 -6.67191,2.2456 -13.25575,4.6937 -14.63075,5.4403 -1.375,0.7466 -4.525,2.0475 -7,2.8909 -8.88745,3.0287 -31.71842,10.3984 -43,13.8802 l -11.5,3.5492 -25.5,5.4348 c -39.55726,8.4309 -53.35255,10.5722 -93,14.4354 l -10.5,1.0232 -15,-0.8711 c -17.76328,-1.0316 -19.45461,-1.2766 -34.87051,-5.0514 l -11.87051,-2.9068 -3.41792,0 c -3.60251,0 -37.58346,-5.7934 -50.34106,-8.5826 l -7.5,-1.6398 -5,-2.8316 -5,-2.8316 -4.69098,-4.8072 -4.69098,-4.8072 -1.93113,-7.0184 -1.93112,-7.0184 -4.07392,-6.4816 c -2.24065,-3.56487 -5.51111,-8.2816 -7.2677,-10.4816 -4.0295,-5.04668 -5.81279,-9.2672 -7.28419,-17.23958 l -1.1653,-6.31386 -24.98234,-0.36995 -24.98234,-0.36994 -9,-1.15857 -9,-1.15857 -9,-2.52316 -9,-2.52317 -9.5,-4.79697 c -5.225,-2.63834 -12.2666,-5.92457 -15.648,-7.30274 l -6.148,-2.50576 -15.852,-10.24935 c -19.8835,-12.856 -24.4537,-17.11198 -26.8333,-24.98838 -0.4154,-1.375 -1.4083,-3.24497 -2.2064,-4.15548 l -1.4512,-1.65549 -7.1806,-0.66161 -7.1805,-0.66161 -6.0925,-1.96204 -6.0926,-1.96203 -5.056,-3.22087 -5.0561,-3.22087 -5.4727,-7.25467 -5.4728,-7.25467 -1.0278,-4.24533 c -0.5653,-2.33493 -2.0857,-8.97033 -3.3787,-14.74533 l -2.3508,-10.5 0.1983,-9.34661 0.1983,-9.3466 1.525,-2.32755 1.5251,-2.32755 1.8733,-0.59457 1.8734,-0.59457 3.8987,-5.73128 c 7.0098,-10.3047 17.2994,-22.51964 29.0124,-34.44111 l 11.5052,-11.70984 11.1951,-7.92966 c 18.3048,-12.96547 27.4812,-17.6249 53.6952,-27.26448 7.425,-2.73036 15.75,-5.90992 18.5,-7.06569 2.75,-1.15576 9.05,-3.55764 14,-5.33752 17.08755,-6.14417 73.49343,-32.35529 94.5,-43.91298 5.775,-3.17737 15.225,-8.26123 21,-11.29746 15.94012,-8.38058 27.68311,-15.42559 48,-28.79679 10.175,-6.6965 21.6995,-14.21818 25.61001,-16.71486 3.9105,-2.49668 11.42251,-7.85174 16.69334,-11.90015 5.27084,-4.0484 11.73481,-8.93573 14.36439,-10.86073 2.62958,-1.925 10.11026,-8 16.62373,-13.5 6.51347,-5.5 15.29999,-12.91499 19.5256,-16.47775 4.22561,-3.56277 12.85793,-11.47846 19.18293,-17.59042 6.325,-6.11196 15.1,-14.22174 19.5,-18.02174 4.4,-3.79999 9.8,-8.72406 12,-10.94237 2.2,-2.21832 10.61603,-9.74996 18.70229,-16.73699 l 14.70229,-12.70368 5.0988,-6.26353 c 2.80434,-3.44493 6.13572,-7.38852 7.40308,-8.76352 1.26736,-1.375 4.7921,-5.875 7.83277,-10 3.04066,-4.125 7.85775,-10.14454 10.70463,-13.37676 2.84688,-3.23222 5.93159,-7.05722 6.85489,-8.5 0.92331,-1.44278 3.48381,-4.93934 5.69,-7.77013 2.20619,-2.83079 5.48139,-7.33079 7.27822,-10 6.4317,-9.55435 15.21985,-22.01828 22.45919,-31.85311 4.04851,-5.5 8.50474,-11.8 9.90272,-14 9.56475,-15.05198 24.17101,-35.89914 28.94385,-41.31085 2.27457,-2.57903 5.1666,-6.71415 6.42674,-9.18915 4.41618,-8.67367 19.99831,-25.78778 36.50053,-40.08912 10.46485,-9.06917 10.24025,-8.77423 12.84845,-16.87244 l 2.1373,-6.63609 1.58711,-13.7542 1.5871,-13.7542 -0.32998,-23.21519 -0.32998,-23.21518 -3.5,-6.90602 -3.5,-6.90601 -5.06132,-5.57578 c -2.78373,-3.06667 -6.60873,-7.7637 -8.5,-10.43784 l -3.43868,-4.86206 0.0536,-9.13794 0.0536,-9.13793 5.32293,-13.5 c 7.61305,-19.30821 9.97771,-25.70332 12.0172,-32.5 l 1.80044,-6 3.77758,-6.30799 3.77758,-6.308 9.03097,-8.427 9.03096,-8.42701 8.10495,-4.015 8.10495,-4.015 4.96267,-0.004 4.96266,-0.004 11.30171,2.15414 11.30171,2.15414 3.55368,2.82409 3.5536,2.82408 3.6447,0.6592 c 2.0045,0.36256 4.8543,1.27126 6.3329,2.01933 l 2.6883,1.36013 3.3117,4.00337 c 1.8214,2.20185 7.0417,6.97711 11.6005,10.61169 l 8.2889,6.60832 3.0714,6.14453 c 1.6893,3.37949 4.112,7.53137 5.3838,9.226391 1.2718,1.69503 3.2946,4.83069 4.4952,6.96813 1.2005,2.13745 4.1489,6.15061 6.552,8.91814 2.4031,2.76753 7.9314,9.10838 12.2851,14.09077 l 7.9158,9.0589 4.0932,1.22635 4.0932,1.22636 1.2093,2.21474 1.2094,2.21475 0.6872,11.74279 0.6872,11.7428 1.6827,2.5681 1.6827,2.5681 7.0159,4.53857 7.0159,4.53856 9.6756,9.65054 9.6756,9.65054 6.0162,9 6.0163,9 10.0504,5 c 5.5277,2.75 12.2739,6.44077 14.9916,8.2017 2.7176,1.76094 6.6087,3.89844 8.6468,4.75 l 3.7056,1.5483 3.9885,0 3.9885,0 14.2936,2.97493 c 7.8615,1.63621 19.0186,4.38877 24.7936,6.11679 l 10.5,3.14187 7.665,3.85161 c 25.0823,12.60377 46.686,32.88136 65.964,61.914799 l 6.9719,10.5 6.8605,14 c 12.4509,25.40826 20.4552,47.36665 26.9748,74 l 3.9166,16 3.5136,21.5 3.5137,21.5 1.0599,16.52677 1.06,16.52676 0,21.6874 0,21.68739 -1.034,10.28584 c -3.0945,30.78467 -7.9186,65.28207 -9.4829,67.81324 -0.1872,0.30277 -1.7564,7.50797 -3.4872,16.01155 -7.2839,35.78589 -15.5048,60.16483 -35.2577,104.55577 -10.3121,23.17456 -28.28,57.94152 -34.97,67.66508 -2.3475,3.41196 -5.1682,7.8886 -6.2682,9.94809 -3.3502,6.27249 -17.6224,26.8432 -25.5268,36.79211 -1.9664,2.475 -4.9315,6.525 -6.5892,9 -14.0796,21.02177 -29.357,42.1222 -49.2342,68 l -4.9928,6.5 -16.3285,15.74625 c -8.9807,8.66043 -19.7653,19.16449 -23.9658,23.34234 -4.2005,4.17785 -8.9255,8.40681 -10.5,9.39771 -1.5745,0.9909 -4.4137,3.3118 -6.3094,5.1577 -3.6477,3.5516 -13.6276,10.987 -20.9311,15.5943 -2.4078,1.5189 -6.2328,4.402 -8.5,6.4069 l -4.1222,3.6451 -4.5,1.1863 c -2.475,0.6524 -5.625,1.9316 -7,2.8427 -4.8712,3.2276 -6.5916,4.1709 -14.9814,8.2143 l -8.4814,4.0876 -7.0186,2.0167 c -17.0144,4.8888 -31.1466,7.3196 -57.0186,9.8073 -11.89597,1.1438 -12.57255,1.1428 -26,-0.038 z"
         id="path3035"
         inkscape:connector-curvature="0" />
      <path
         style="fill:#d9b052"
         d="m -446.5714,852.20163 c -23.71221,-7.1559 -47.33717,-12.01637 -65.63035,-27.53756 -9.1315,-37.89413 -29.63052,-30.78071 -60.37007,-13.67314 -64.62019,23.47144 -133.74928,38.94732 -202.52569,38.76757 -37.54307,-7.67874 -76.07684,-10.94941 -113.16452,-22.07097 -16.05774,-11.12763 -14.36978,-33.37603 -30.20808,-45.67013 0.52805,-23.00483 -13.86726,-22.44651 -33.54951,-21.02545 -9.79393,3.04426 -61.21808,-7.717 -35.64721,-7.23571 20.17056,-7.73015 5.97527,-0.1568 -1.78696,-8.10831 -12.62691,11.41956 -26.26411,3.77762 -33.11801,-8.23326 -17.844,0.008 -12.9252,-8.34801 -19,-18.76674 -11.2209,-8.15262 -37.8347,4.85142 -46.7262,-22.09134 -2.9391,-19.14858 -25.0126,8.65048 -35.1558,-9.53715 -15.7658,-16.28552 -19.5447,-40.89267 -16.8517,-62.72873 12.6763,1.012 27.7887,-36.47427 27.9152,-14.98619 -5.2769,11.7452 9.3001,32.28469 27.3579,34.76445 15.141,-8.52633 16.5114,-13.89396 27.924,-18.53716 23.116,-9.3081 25.7349,-0.35692 6.1665,8.11612 -6.5589,15.82013 18.5384,4.97179 26.3701,1.74438 -18.6365,13.59308 -0.8322,6.68014 3.69,16.25562 10.2318,2.49769 30.58074,1.48863 40.44476,-9.00001 10.33705,0.48293 23.72665,-8.36243 17.86522,-20.7551 4.97398,-15.44756 16.89199,-7.76235 25.49996,-20.24489 -13.50264,-8.15964 -23.26663,-2.41403 -15.40477,-14.55225 -1.11053,-25.3682 13.78697,15.4566 20.89205,-3.57788 8.17544,-8.57619 34.72112,-17.56094 31.05092,-11.93395 16.44478,-6.89329 28.1686,-7.68206 46.44969,-7.22503 12.31983,-4.12748 29.00464,-2.21008 41.73121,-6.7109 14.63973,-4.73146 30.65524,-1.35004 42.81759,-6.86831 16.62663,3.6203 14.26857,-8.2762 34.04683,-8.80131 12.05119,6.13456 22.30409,4.43616 33.98444,-0.16916 3.38851,-7.0093 8.35759,-2.73464 19.88597,-6.16121 8.60748,-9.4979 25.32932,-4.39005 36.1796,-14.41156 6.17667,1.94226 13.72215,-10.65289 21.34603,-4.64526 9.98407,-9.54286 41.46703,-10.32818 22.6439,-27.59196 10.82182,14.73984 17.87346,-19.51634 23.17996,-0.35122 9.684,-10.66122 26.9125,-14.89862 38.08567,-27.81524 14.15283,-10.62155 31.7661,-21.23421 42.63771,-36.7013 19.99389,-23.99951 42.13308,-49.25994 57.84675,-77.82512 7.73972,-16.20752 13.66061,-31.9437 22.95908,-47.05197 20.74074,-40.84139 29.61385,-90.91125 18.16741,-134.5034 1.42713,-13.77589 -13.6871,-17.06828 -9,-30.06473 -7.09847,-6.28876 -1.67304,27.13711 -19.82853,11.06434 -22.96263,8.03 -23.25888,48.67573 -37.17494,67.39742 -32.44122,87.07484 -89.97087,165.66259 -165.67742,219.64478 -95.46968,76.26045 -212.89876,121.29731 -332.24915,143.18161 -24.12693,-2.11718 -61.32934,37.44894 -71.65404,7.45277 -23.5344,12.87244 14.7872,-22.41991 -18.9159,-10.51505 -9.785,-4.34173 -31.2202,10.89812 -16.7795,-8.94581 0.5653,-11.80645 19.3247,-16.4542 30.1839,-19.7024 14.8911,-0.55022 22.953,-13.78421 39.3224,-11.46758 19.34501,-4.00333 38.22166,4.89085 56.02318,-6.56718 14.44025,-0.70972 5.4395,-24.37015 21.63799,-20.02616 10.57868,-6.94713 22.93565,4.07015 26.02842,10.11165 11.63314,-11.2607 12.84875,-7.16524 31.94073,-4.66672 5.25559,-6.13408 29.19102,-17.24993 29.14285,-1.99991 9.75082,0.94297 28.34738,-25.91403 21.5,-11.13464 5.34252,-6.5333 24.31695,-5.60272 30.5,-21.11025 13.06207,-17.05845 2.00839,6.87035 8.25335,6.49543 8.67497,-11.46243 23.05312,-5.13932 37.9864,-8.14541 17.91214,8.89163 13.23451,-14.51807 23.89845,-7.5091 13.56843,-5.69001 28.06806,-16.45498 39.75459,-26.01942 17.62945,-12.8337 31.58659,-30.78046 46.08016,-45.00547 29.61705,-20.15252 51.45134,-51.53292 73.74071,-79.29331 40.65732,-47.08385 62.96904,-107.96029 86.82578,-164.68972 6.16326,-16.10975 0.14004,-31.17849 -18.40812,-26.65551 -17.19662,-0.72378 -9.13115,-25.75227 -22.07909,-22.26405 1.89109,-11.151666 24.34287,-19.886511 27.22615,-34.826342 2.95641,-27.589334 10.11841,-61.0973055 -2.74007,-88.056808 -30.94452,-18.823938 -19.23159,-53.579773 -5.11323,-79.2854 6.44904,-28.072 33.71152,-58.75981 64.92762,-50.35593 24.01921,3.58552 42.8075,19.4087 58.56036,37.0517 7.31561,30.436841 46.55894,42.635973 48.69909,70.658343 -1.56703,23.602626 28.36777,28.992956 37.86958,47.9114786 12.43893,22.1504954 39.5056,34.7676514 65.10278,37.0312994 6.86249,7.244803 31.8171,21.854322 12.52999,5.636029 13.95995,-5.984278 7.71393,12.257792 21.59661,10.778218 16.51451,-2.119676 14.77965,9.652507 26.35019,8.982742 28.3651,8.437544 48.23822,42.80902 63.479952,68.12066 63.968826,121.45111 52.874152,269.86798 2.857248,393.88574 -31.11021,79.43762 -83.90799,147.04085 -134.85384,214.40209 -50.45046,51.66711 -110.50481,106.35598 -187.05872,106.94829 -12.51725,2.20533 -26.15381,2.34778 -38.48551,-0.99696 z M -838.56219,744.68264 c 15.85999,-7.47473 27.48933,-17.00135 41.64357,-25.03471 15.17446,-15.20559 36.77897,-22.9941 53.57639,-34.1875 -10.0596,-17.83446 29.2395,-5.94815 23.47016,-21.91972 -11.69458,-10.43135 -25.4814,3.87976 -39.45444,1.10722 -21.63335,5.37437 -47.95292,11.76509 -67.14487,27.37956 -8.53104,9.16148 -15.47425,9.40018 -28.42717,19.76346 3.29434,7.11331 0.23145,29.2128 -8.21171,21.63473 24.65396,-2.9456 5.83011,12.77659 24.54807,11.25696 l 0,0 z m 19.20035,-43.21442 c -24.43456,1.77126 4.37168,-6.2629 11.06875,-9.70096 8.42188,-5.06491 53.21619,-16.69941 36.92012,0.98529 -14.69482,4.03097 -32.48243,10.15696 -47.98887,8.71567 z m 112.42881,-41.32029 c 8.07296,-8.30455 25.36825,-1.56511 30.39681,-14.56574 -1.52985,-0.55916 -19.27444,6.35401 -30.05244,6.0233 -9.90616,4.27564 -19.51716,14.07554 -0.34437,8.54244 z m 49.10217,-17.00085 c 11.4525,-7.88597 22.57229,2.60703 39.8697,-9.16291 -0.97192,-9.06848 26.83735,-3.48145 35.38982,-18.399 -20.54778,8.99226 -12.18128,-12.7175 -23.92969,-11.93724 -13.61874,9.61655 -21.2245,17.00653 -38.49777,24 -6.78552,2.10647 -41.22131,21.52014 -12.83206,15.49915 z m 90.75946,-32.49915 c 27.09356,-11.84743 52.70056,-35.59582 81.17768,-49.92464 5.84527,-11.9513 48.92967,-30.97927 36.91028,-42.87941 -22.46364,7.71455 -4.09175,-15.53931 6.75971,-18.9128 19.62259,-4.31573 -8.54062,25.08286 12.57551,16.04266 13.92427,-1.67312 18.24877,-18.21092 25.58052,-28.31316 14.59478,-5.43439 23.79579,-23.22876 28,-34.40133 10.24353,-0.54701 18.93305,-50.52144 23.60713,-18.823 -11.29025,8.33652 -10.42072,20.36355 -8.70653,34.09792 -11.57033,7.59138 -2.12054,19.4304 -15.0916,27.65106 6.38976,11.12483 -13.01102,17.78734 -1.3095,22.41335 -10.17769,1.88364 -10.83922,17.64086 2,13.27224 -19.22116,-17.35034 16.83292,1.51244 13.0016,-14.35652 7.87462,4.27461 -5.84498,-30.42231 15.029,-19.77313 -3.82183,21.38676 9.94341,2.4928 8.6815,-6.32691 9.37182,-13.02944 22.03186,-23.30727 26.3491,-37.45993 1.50362,-5.86638 6.93257,-16.82846 10.9382,-25.41849 7.05245,-9.10083 25.80006,-20.73144 12,-30.48603 -5.4062,-11.38056 2.32232,-14.34224 10,-28.2832 6.05852,-11.66296 -11.08592,-21.40038 -6.7543,-34.92723 -1.80864,-19.32661 -9.66008,-9.0132 -7.6648,-19.26649 18.27601,3.40038 -4.55797,-21.62884 0.0612,-28.2391 11.53056,-9.5127 5.52319,-31.05432 5.2212,-46.3693 -2.91287,-7.38421 -5.3967,-34.26319 6.13406,-27.81656 4.09511,4.72347 18.95009,-27.96042 28.9305,-15.49996 3.91404,-18.85255 11.23684,-14.31895 5.7758,-25.94239 -12.86932,-11.92521 -21.66485,-3.46305 -32.03689,-16.06755 -13.77494,-19.2054 2.33319,-8.84869 11.56269,1.20721 5.40115,-12.78977 -20.58992,-18.53684 -19.2461,-19.85903 -6.39511,2.70355 -7.96624,11.82406 -15.9848,15.75294 -8.66702,6.85906 -21.30868,42.87058 -36.83041,18.10036 -10.99887,-18.77605 -14.79297,10.88594 -16.62569,25.74028 -9.36815,85.09968 -22.94091,172.51433 -70.5451,245.77185 -19.30763,30.03527 -39.25887,60.68677 -68,83.30883 -8.7591,12.87867 23.02125,6.75683 3.98817,17.17161 -22.01783,5.26314 -37.13723,23.7015 -59.22838,29.73709 -8.80678,7.94287 -62.42312,29.57637 -32.52557,35.41888 7.89436,-2.29446 11.55092,3.85362 16.26578,3.65988 z m 396.302,-475.34152 c -4.90834,-5.11198 5.76348,-21.71122 15.2786,-5.42143 17.30312,-2.98136 6.7169,-20.69131 -6.0806,-23.9664 -1.88338,-7.26798 -3.05601,-28.730674 -16.36768,-22.651917 -7.83973,7.148506 -11.53386,-11.051098 -23.59262,-4.221413 -9.675,3.413021 -24.94423,27.03997 -4.3828,34.22923 10.02308,-4.87285 25.55558,1.55977 18.3442,14.12857 3.78416,7.08235 9.82702,9.66896 16.8009,7.90336 z"
         id="path3033"
         inkscape:connector-curvature="0" />
      <path
         style="fill:#d4a326"
         d="m -419.01253,851.11613 c -14.57412,-7.10632 -26.02863,-1.35001 -41.81973,-5.57841 -21.03462,-6.13209 -34.43889,-9.11058 -47.73209,-21.35133 -14.29777,-31.83764 -21.85869,-43.75953 -56.76135,-19.53846 -17.50748,9.00398 -38.58887,9.66054 -56.47402,20.0623 -4.9116,-12.48605 34.37298,-13.51698 44.4974,-20.7978 10.06173,-13.91854 30.69807,-6.11001 40.67118,-19.42719 12.66853,-3.98735 23.7042,-13.55087 38.44234,-11.49675 9.70798,-13.49886 14.32665,-5.07942 25.136,-19.99828 12.68771,-6.3154 24.03213,-7.94096 31.18755,-21.82275 7.02452,-11.24669 14.89946,-27.8081 9.29385,-6.51302 -3.47417,14.04867 17.73609,-6.32006 25.6031,-8.07536 24.57997,-22.09757 55.8721,-47.59943 75.6571,-69.06083 13.58979,-15.91706 26.44819,-28.89451 40.49287,-45.80952 59.53947,-77.06185 97.37822,-171.31844 106.97423,-268.179 4.83999,-73.61251 -11.34316,-158.14725 -77.7183,-200.8818 -25.04432,-7.08134 -38.61776,-64.989154 -54.1503,-53.04709 -4.76384,7.985044 -6.5838,33.71409 -7.3724,17.70095 -8.52403,9.53072 -7.58171,37.8733 8.6108,31.5242 -1.5939,-7.42259 14.11123,12.14814 4.59753,17.2036 -0.1433,14.62332 -12.50998,46.28226 -29.54483,26.61834 -18.2745,-27.32962 -18.32589,37.14245 -22.38883,54.05993 -7.91643,76.06181 -24.99508,152.70149 -68.55864,216.94007 -69.25107,110.35265 -188.78454,178.45287 -312.4645,210.72972 -38.34113,13.89014 -103.31148,30.09409 -117.33497,65.23335 2.97987,13.15026 -25.3736,-1.13385 -32.04324,17.94927 -6.45046,19.26919 -27.41135,4.24391 -44.06036,7.66543 -25.89103,2.06578 -48.40025,-14.44568 -73.10856,-13.67985 -14.3893,2.50514 -26.8839,-2.36124 -31.9847,-13.36322 -4.9582,-18.31609 -34.7855,10.58953 -39.206,-14.58837 -4.2844,-15.05925 -17.9305,-18.78263 -32.5,-11.99033 -20.5592,-7.06336 -21.5851,-30.68423 -26.5034,-48.16729 -0.9056,-16.41647 10.4993,-15.61014 3.3906,-20.44536 20.2689,-11.02711 18.3911,3.29481 33.3865,18.42361 14.3556,12.69859 24.9472,-6.3652 38.7263,2.78331 14.1394,5.03999 24.8744,15.90891 37.7197,16.37097 19.0449,-3.32766 30.87793,-7.21344 49.37223,-13.07489 62.69335,-20.62039 126.69064,-36.8011 190.74044,-52.8342 44.40102,-19.87007 93.52342,-27.80575 134.3938,-56.19272 18.53767,-15.83633 49.78184,-22.13409 62.27383,-40.70602 18.45894,-11.18257 35.71668,-18.81139 48.04711,-36.11341 23.35727,-9.6785 39.38201,-34.0443 57.24671,-51.56089 23.81162,-28.80777 46.34307,-60.72455 58.30991,-95.0294 25.34971,-39.10142 38.95958,-94.07926 29.42397,-140.32749 -3.76556,-12.81513 -1.97874,-24.29092 -13.03311,-31.96084 1.09665,-25.10824 0.0441,4.94862 -8.18067,6.85381 -12.67427,-15.63608 -22.74406,4.45624 -28.26962,19.20091 -29.00854,75.83756 -63.74608,151.42366 -122.91291,208.78945 -59.02207,62.43703 -133.57029,109.53888 -212.4037,143.03445 -12.16957,-3.48494 37.93511,-24.76844 47.19388,-33.22846 26.18984,-22.64664 62.78745,-41.82571 86.61016,-68.4522 18.47783,-25.90077 47.25195,-40.00161 67.46827,-66.85629 12.27752,-22.62464 33.04976,-37.31143 45.50162,-59.66623 28.91857,-46.90975 54.50566,-97.46189 69.84336,-150.29682 4.03283,-23.50633 -24.68615,-8.09858 -32.98725,-26.25794 -3.31504,-15.271 8.74633,-41.219565 19.09279,-26.69728 19.85128,3.212211 5.29619,-0.42206 6.97088,-17.485021 -3.71125,-9.918514 4.04509,-23.152764 4.0786,-34.059759 -3.10898,-20.326143 -6.74116,-35.0212758 -4,-33 1.96279,-6.0377957 0.80236,-23.745337 -6.99962,-18.11803 -7.08148,-16.599073 -32.0091,-29.679915 -20.08696,-52.039203 6.26324,-21.211326 16.40887,-32.67425 22.50702,-50.947737 6.25099,-22.5829 33.39783,-37.02339 55.89556,-28.98747 25.20895,4.69907 47.82471,23.71058 60.37536,45.546377 7.85263,23.693011 38.08019,34.009188 42.5192,54.743828 -2.67055,19.60798 9.99296,28.871353 3.85462,44.664045 -16.76417,10.868505 13.41393,33.098624 20.6853,45.2282 7.00791,5.074893 26.97022,46.524969 33.25,21.90999 4.55973,3.259679 23.83086,-12.757953 26.56116,2.013698 -2.65388,9.30345 -12.47148,19.365763 -9.60236,29.008032 -4.44639,19.78791 14.31952,36.03524 25.5468,50.79888 13.49676,9.17671 13.41045,24.62761 30.59687,37.06464 9.65364,12.13144 16.68081,28.74523 24.30773,42.11475 8.53908,19.03403 11.59174,40.20972 16.48733,61.18152 4.59712,13.31889 5.81617,28.07799 7.88727,41.03881 -0.36006,12.59541 -4.43975,23.53883 6.145,33.02099 -2.83264,10.61147 -4.05314,23.64728 -8.24444,36.19754 -12.87061,17.75504 -4.2211,39.05769 -8.39165,56.80046 -8.01743,7.61344 -16.25054,15.28819 -7.00651,27.90146 7.58101,13.92111 -24.7418,27.64817 -15.95679,39.75587 22.20402,-16.93468 8.64954,38.20309 -0.0381,13.60339 -11.65066,-14.90495 -10.67184,18.41498 -20.4752,23.24064 -7.60393,8.43431 -9.93342,23.31052 -13.44989,31.15916 -0.72717,-4.07588 -23.79763,23.73258 -6.21711,27.35078 8.69655,-2.45947 4.34515,-22.27538 19.9553,-10.09263 -9.88702,-13.33498 34.59848,-15.97632 11.7673,0.82838 -5.11453,11.42644 -17.45905,21.15458 -21.0787,32.51068 7.23046,21.63572 -29.65224,-0.30921 -12.01228,-7.89912 3.0234,-15.27231 -13.98989,-15.47394 -11.46972,2.83239 -5.61654,11.30888 -11.22713,15.79226 -24.3113,17.31523 -3.19493,12.93836 -7.26743,21.00894 -19.91213,31.30087 -5.36884,-12.29958 -14.23265,-12.4922 -8.30403,1.95162 5.9846,14.41016 28.24273,-5.4623 35.79656,0.48431 6.0575,12.71667 35.26205,10.72161 15.7957,3.26866 -7.14272,-7.20516 -0.15381,-21.98374 -15.3761,-9.40849 6.30067,10.48477 -13.00865,-6.86733 -16,-0.26073 9.46929,-2.50649 13.0604,-13.40027 24.9561,-12.30875 16.47965,-0.4866 10.03886,22.47221 21.9696,25.55264 8.66383,-21.26637 6.57842,19.01974 -9.0295,13.86765 -6.7706,9.32096 -0.66039,-18.86461 -10.8962,1.82362 7.82262,9.55346 -4.35232,20.43585 -16.0687,32.98305 -10.60639,4.42155 -16.68178,13.11759 -27.8133,18 -3.50851,-6.19618 -1.82285,-10.95529 -17.2832,-18.09598 11.25167,-19.15382 -29.08792,-15.91406 2.2556,-19.48657 0.27315,-8.41043 14.53414,-30.09981 0.60716,-31.0725 -9.68557,2.69234 -13.54368,13.53614 -28.44846,15.62324 3.99323,6.60146 -7.32242,13.5875 2.4026,14.94919 15.83939,2.96176 -8.34486,24.79851 3.3474,28.96597 -9.54804,9.64393 -6.657,-6.4032 -15.7695,-5.98625 -14.31756,19.37666 2.14872,8.04686 -3.231,25.6029 -1.1268,11.28614 25.37295,-14.0968 21.8598,9.89224 -14.50668,13.06537 -15.81498,19.93205 2.7397,17.76976 -3.6162,8.96903 -27.72748,2.92252 -17.6001,9.8381 -6.62239,15.27997 -12.4675,11.1162 4.74455,10.79709 -16.45516,16.74909 -41.09192,19.81981 -63.08207,26.23834 -13.11831,0.54509 -26.37126,1.86667 -38.10279,4.43267 z m 73.62313,-65.9682 c 12.00215,-0.33479 14.54633,-38.34539 -5.35075,-28.26612 -19.16969,6.90618 2.89064,21.89673 1.12965,30.76612 1.34699,-0.92667 5.01892,1.76089 4.2211,-2.5 z m 25.524,-702.25 c 7.31017,-9.343278 10.91279,-19.272252 -2.31791,-30.234042 -0.29219,10.947886 -2.25005,21.113566 0.83009,31.910387 l 1.48782,-1.676345 0,0 z m -459.76253,762.9949 c -7.91854,-4.17946 -13.41102,-8.30919 -27.09138,-7.611 -18.67972,1.35027 -41.13526,0.94317 -59.04733,-8.4006 7.55658,-15.85818 0.44647,-15.9908 -10.98713,-5.7333 -32.78749,6.73484 12.38704,-10.6301 -7.74714,-18.3136 -2.30669,-6.89832 -11.73431,-19.01508 -21.48161,-15.05996 -20.56712,-2.2926 18.29612,-31.98982 5.6126,-26.65549 -20.67517,0.0619 -8.75054,39.9456 -19.90212,2.33369 3.20507,-18.57023 26.78162,-3.27919 36.20063,-14.77536 -21.12788,-10.68864 18.52086,-20.82595 6.69156,-4.58109 10.90961,-0.85069 13.93693,-2.83895 26.39413,-0.83431 27.63778,4.71447 51.0217,-24.77579 73.63274,-37.49476 16.93419,-6.42204 32.84725,-19.45346 52.93944,-22.11917 13.31305,-14.02561 29.70032,-14.65277 48.34214,-22.17187 16.54152,-2.98346 32.01398,-14.02255 50.5592,-19.97506 18.24963,-1.72422 32.93942,-18.02491 52.37896,-21.01322 15.29529,3.66351 6.97857,-7.0149 20.34058,-14.9456 19.61881,-13.74994 32.18603,-2.74551 8.02078,8.0441 -13.50157,8.45671 -10.91316,7.80521 -15.79855,17.1944 -7.09948,-12.55166 -11.39666,19.93685 -23.13485,5.86725 -7.28222,17.37295 -2.6026,2.57909 -16.55644,8 -9.32405,17.33382 -25.10174,2.15514 -25.30968,21.41501 -18.81246,-0.62221 -5.55503,5.24043 -14.58204,8.67375 -8.19594,-12.93842 -11.48682,16.98743 -26.14824,7.91124 -7.25977,5.57917 -31.03546,-10.54811 -26.41347,6.80003 17.35462,0.6344 12.95373,-3.61043 7.01208,8.78134 -8.28488,-5.62788 -26.0159,8.76481 -36.38066,4.42885 14.43862,11.31149 -22.20946,8.19478 -20.49297,22.40364 5.59162,5.08618 14.35416,8.62191 31.0053,14.17746 8.89317,-16.11135 8.21464,4.00171 20.89645,-5.89089 -11.34599,-21.9219 8.09799,-14.12405 16.10355,-5.45555 18.3853,-4.99442 9.56,14.00569 4.00002,17.65692 13.53938,0.40384 15.86163,-9.72391 19.99999,-21.90181 -12.63963,-2.19699 -9.45236,-29.85766 8.69002,-24 17.27921,5.2259 29.88396,-19.56335 54.46178,-22.2866 12.17325,-5.60708 20.75914,-4.6813 32.33412,-11.72133 12.08214,-13.39751 24.29079,-0.44133 12.41651,10.74024 17.52306,4.63002 0.62129,47.50292 19.84384,28.49008 3.66692,-17.07404 21.59905,-29.06936 31.85407,-19.22949 30.78979,-7.20606 13.24082,29.26368 -3.80173,32.2571 -8.63523,27.15898 15.5573,1.48888 25.89317,4.46504 29.55497,-15.37082 3.56603,10.77267 -11.69178,14.29581 -18.56738,2.76701 -21.2115,19.57892 -38.68586,21.87806 -6.50111,15.11916 -4.37468,20.20223 -15.18193,10.11109 -8.92917,-6.22622 -20.73035,4.39403 -24.09634,14.03587 -19.36406,5.25448 -20.81839,2.04443 -37.2617,7.96039 -18.22012,8.34657 -36.82215,4.31971 -56.73503,8.42046 -17.90161,11.38961 -43.35572,4.15755 -60.97291,17.56076 -16.57703,-2.50497 -32.5592,3.44103 -49.51993,3.00482 -15.4325,-0.50838 -19.40539,17.70213 -3.27641,21.3747 40.45585,0.91835 -3.49053,6.21624 -13.32643,1.88796 z m 2.47474,-67.85189 c -0.77994,-10.23459 34.40152,-5.36791 11.53833,-22.59031 0.65747,3.99065 -27.48799,23.21944 -11.53833,22.59031 z m 19.58959,-21.14301 c 14.86059,-2.07866 3.84154,-17.24029 -4.5078,-15.97323 -6.7618,0.26739 1.02335,19.59501 4.5078,15.97323 z m 460.6051,16.02958 c -23.03925,1.37535 6.37129,-25.29733 8.6104,-9.25361 -2.32872,2.80725 -2.2769,10.4926 -8.6104,9.25361 z m -143.19207,-64.40769 c 5.54612,-14.02212 -4.25131,-32.22811 10.07917,-13.00603 10.13613,3.74354 -5.45124,17.33962 -10.07917,13.00603 z m 90.57917,-64.84959 c -3.73071,-6.69732 -1.46012,-21.12696 11.936,-30.91304 10.94977,-21.56845 5.86635,-19.93941 24.184,-26.89881 15.78588,-4.29864 -0.71643,-17.22251 7.81862,-26.36275 -6.77589,-13.85221 21.38355,9.96827 16.54293,-19.97248 8.90567,0.68632 20.05403,-28.67122 6.56835,-18.8753 -11.77724,-17.9843 28.72269,-29.01569 5.9502,-37.21398 1.15993,-10.05261 17.04112,-42.75368 8.7187,-28.62957 4.60542,-10.83048 17.52606,-22.50122 28.2443,-18.62102 13.31341,-3.77952 12.47951,-19.046 15.88879,-26.8317 10.63569,8.42304 2.80493,9.87849 6.66191,23.25297 -10.6984,17.37301 -20.45794,44.00327 -26.7249,64.54338 -7.48551,15.05585 -14.85602,29.23996 -24.352,43.0544 -10.71139,19.93396 -27.21868,37.71339 -36.4369,56.7471 -12.47148,3.32563 -16.38404,25.52753 -27.9978,33.71751 -8.47431,2.31235 -8.47933,14.95075 -17.0022,13.00329 z m 1.7065,-52.64908 c 4.27309,-9.97354 10.45117,-22.79272 19.5268,-28.87322 2.56173,-18.47584 14.04077,-13.85523 8.97324,-29.36049 10.29312,3.97216 17.96062,-27.87083 17.70676,-4.63951 21.19363,-13.09441 10.08108,11.75078 -0.36015,4.6057 -12.87637,1.71384 4.4124,10.26465 -8.09135,8.77981 -9.21565,15.44257 -18.42752,29.57609 -27.4618,44.71446 -3.80107,1.78879 -6.67976,5.6691 -10.2935,4.77325 z m -641.51527,-16.72529 c -0.98371,-13.24018 23.91122,-6.40363 32.84525,-14.02936 17.26481,-2.46386 30.60708,-17.47989 27.59538,2.00072 -12.13931,8.42265 -30.02336,0.0229 -34.19696,8.40545 -9.49227,-1.41615 -17.11875,9.14069 -26.24367,3.62319 z m 76.16202,-14.81008 c -14.78631,0.0461 -23.52328,-23.29099 1.14675,-13.33785 0.47273,7.00603 19.5951,10.94413 -1.14675,13.33785 z M -119.9047,403.98126 c -0.55579,-6.65977 3.74999,-40.30974 11.22357,-18.43015 -8.37142,9.22728 8.903551,23.07357 -11.22357,18.43015 z m 15.1922,-20.66522 c -9.55572,-8.38434 15.257753,-32.57578 -5.8945,-33.79285 -6.53835,-18.32647 -0.35084,-32.31391 4.2047,-51.37526 17.083617,-8.02875 -7.47073,38.3386 13.9528,23 7.274091,19.15172 -4.675002,35.30952 -3.0591,54.45607 -2.322326,3.37589 -3.354,11.45738 -9.2039,7.71204 z"
         id="path3031"
         inkscape:connector-curvature="0" />
      <path
         style="fill:#a36d14"
         d="m -888.3214,825.47513 c -3.62935,0.19709 19.83403,-16.95576 3.82049,-19.6405 -2.23086,-6.93173 -11.7843,-18.97785 -21.48161,-15.05996 -27.58476,-1.86006 10.29256,-25.14767 8.6539,-26.78332 -25.63103,-6.17218 -9.69693,43.10895 -23.1077,3.68601 2.87052,-20.4832 31.66162,-3.74081 41.95607,-14.56432 6.80585,-5.56975 18.98024,16.673 10.23529,27.18785 -0.85638,13.17444 1.35729,27.37138 -1.81335,40.34699 -5.74732,0.96457 -11.85406,8.90096 -18.26309,4.82725 z m 388,0.1416 c -10.70994,-0.28557 -30.77505,-22.56334 -21.29306,-35.62975 62.5478,-29.88489 120.9606,-69.50127 169.46506,-118.75972 79.41431,-72.15974 135.46367,-170.02865 158.88154,-274.88403 18.3059,-75.52118 16.88343,-162.4246 -28.86186,-228.26265 -23.80154,-29.61489 -59.9353,-47.99411 -76.8368,-83.316638 -11.79166,-12.201066 -34.76987,-70.971567 -33.09938,-63.116012 3.18098,10.672075 12.65569,39.491829 -7.3821,29 -7.50945,-10.771177 -22.92787,-9.434559 -26.16937,-19.328845 -7.89217,-12.481958 -31.93611,2.946779 -18.39663,-15.198145 -0.40721,-15.47053985 -29.08609,-17.3560883 -30.26445,-5.42252 -4.95333,19.933392 -22.98148,-29.061559 -41.29295,-17.11326 -1.54628,10.6437004 -20.62742,-14.534643 -30.64426,-19.01223 -25.50784,-16.424038 -12.14414,-47.432051 -0.3633,-67.425 7.07884,-10.24415 8.53336,-27.17702 19.26995,-38.24624 18.50532,-25.70237 57.16942,-17.3193 77.76131,-0.30026 28.5814,17.72803 37.90938,51.449196 63.1218,73.1256 14.85188,1.961999 9.30283,24.89047 7.74711,35.544112 -17.18648,22.83689537 -1.70501,41.842526 12.91769,58.710906 19.03652,16.806329 29.2793,34.395776 35.3226,50.666652 12.75957,22.22308 34.78471,43.76893 45.231,66.42418 11.49953,21.80068 38.55759,39.78749 37.8478,59.57505 11.92445,12.42098 8.71871,30.49284 14.8126,47.79705 3.74388,30.82531 15.3718,62.49151 5.36273,93.45607 -0.64684,28.00547 -1.92762,45.06166 -9.54483,70.99099 -6.38373,39.42644 -21.89823,77.61833 -38.82387,113.01552 0.79694,14.59577 -26.34657,23.81343 -13.51803,36.97789 -31.33136,8.06551 -49.93351,66.49149 -82.16805,87.72267 -12.04559,12.75744 -29.76634,19.04867 -38.23015,36.03981 -12.0588,8.47901 -17.06806,22.26983 -32.65255,32.73283 -18.71539,21.67121 -47.46079,20.93691 -68.44955,33.72198 -4.9545,16.75761 -36.92144,8.82027 -28.50646,32.60789 -1.57572,10.3684 -6.80407,32.60645 -21.24354,27.9061 z m 47.39936,-848.7188 c 10.85465,-18.981949 0.75933,-16.32584 -8.74936,-19.35 -8.69533,-9.805889 3.74399,33.1264522 8.74936,19.35 z M -890.5714,726.58891 c -6.33944,-3.0286 13.77367,-20.33383 2,-28.74972 -14.22399,-11.96497 18.56175,-20.07799 5.87839,-33.64523 -18.5213,7.50103 -1.33296,-33.50835 -23.37839,-16.54603 -11.17523,-3.9392 7.64495,-19.15925 22.89187,-16.05175 9.87375,-4.06669 18.71031,-13.95269 27.89924,-8.80035 21.43748,-1.62285 3.42547,14.1221 -7.12127,11.66325 -14.67502,6.97505 0.5995,19.76948 -10.98936,12.18236 -14.27068,11.61659 13.01046,5.25454 20.37202,8.80062 5.46678,3.7827 40.35204,-0.15363 26.24952,-4.50805 10.32973,-3.32628 29.50034,-0.8955 35.06767,-5.0653 6.75901,-1.89913 16.01406,-7.60576 26.4306,-9.30357 11.92625,-8.35516 23.73047,-4.08838 32.13916,-8.21537 6.98727,2.79895 23.94324,-2.37974 38.63087,-14.70184 11.85642,5.51532 22.75448,-2.80192 33.25385,-5.7922 11.81334,-2.47558 27.11277,-14.578 38.5144,-15.99008 11.68986,-5.39773 20.11512,-12.82947 31.27657,-18.02659 22.28749,-9.63739 37.9677,-23.05706 55.93132,-36.911 24.33491,-17.66092 55.43538,-44.16268 76.19359,-68.71345 -2.06165,-17.26645 7.57072,0.47679 19.72469,-23.89877 25.26324,-22.83724 -30.14656,51.16862 -40.24624,57.97868 -72.57742,81.88873 -175.78118,127.8974 -279.82846,154.86819 -48.42758,13.73361 -89.05595,43.72713 -130.89004,69.4262 z m -179.7215,-13.08796 c -12.6118,-3.04437 -11.759,-17.9196 -18.2785,-25.92841 2.5348,-24.54969 -1.6722,-19.93709 -10.271,-2.4894 -14.4236,17.75816 -34.2241,-6.39831 -36.729,-21.75307 0.2737,-13.80778 -11.6913,-30.79308 4.2656,-36.81657 -20.4062,-6.90048 31.2736,-8.55637 28.7478,18.23346 16.707,17.85257 32.7335,-17.25802 54.2707,7.42864 20.6862,1.70918 8.1461,26.1345 11.849,35.76949 -7.0453,9.96049 -18.009,31.48286 -33.8546,25.55586 z m 346.80483,-223.24232 c 8.40836,-11.56012 83.50901,-54.63866 39.06767,-22.00913 -12.65504,7.8598 -24.93097,16.96273 -39.06767,22.00913 z M -378.4996,146.55119 c 5.17633,-32.07209 23.36542,20.08763 0,0 l 0,0 z m -56.34836,-11.51315 c -8.51872,-21.04027 -32.58783,-11.95512 -11.49426,-39.164926 4.57196,-25.290789 -1.84654,-52.484077 -2.06568,-76.722044 14.12386,33.379296 23.65133,71.688884 19.07343,108.1522 -1.03485,-4.83775 -2.88457,12.21086 -5.51349,7.73477 z m 60.43666,-22.63003 c -7.42153,-15.239374 -14.66571,-25.651987 -19.2041,-41.26008 -4.09507,-14.653579 -32.29669,-65.9732995 -5.09807,-28.837127 12.775,22.308555 19.64357,47.782819 27.25917,70.146727 -1.02462,0.31762 -2.2601,2.44759 -2.957,-0.0495 z"
         id="path3029"
         inkscape:connector-curvature="0" />
      <path
         style="fill:#603d27"
         d="m -499.00685,823.39793 c -8.86308,-2.74536 -25.34035,-11.40229 -24.56455,-30.60339 18.02965,-8.46006 47.46273,-32.98481 40.91988,1.85386 1.166,9.70632 -5.34591,34.5992 -16.35533,28.74953 z m -374.2618,-10.7003 c -5.89193,-7.02821 -13.47892,-6.4812 -12.80635,-18.359 -14.63314,5.33172 -21.84205,-20.98142 -4.18116,-8.84728 0.62618,-9.69889 -12.44627,-10.75714 -16.68,-9.05697 5.70324,-7.2601 23.15197,-22.1976 33.41094,-16.47876 7.05729,10.89561 2.49056,19.5028 1.95383,31.56219 -11.67373,8.12059 3.62027,21.49968 -1.69726,21.17982 z M -1071.6298,711.75244 c -8.2178,-7.67237 -17.9487,-22.82589 -9.7532,-35.23883 -14.9137,-11.06553 1.8456,-36.66721 -0.9832,-27.0068 12.5222,-0.44727 18.9974,-6.23954 31.7756,4.51567 19.3845,-0.21667 11.5136,22.50747 8.5514,33.58196 -6.3197,21.1263 -9.616,-3.81915 -12.7859,19.49342 -3.385,6.17796 -10.8105,6.07999 -16.8047,4.65458 z m -36.1916,-23.77893 c 4.9336,-9.01509 -19.0024,8.08805 -21.8053,-13.47644 -7.682,-10.18778 -4.858,-23.87206 -9.8844,-35.68615 9.2685,-13.10831 4.0968,-11.89898 5.597,-17.16299 19.1346,0.46909 22.2497,26.94158 38.0484,33.08203 11.0496,18.72575 -16.575,6.94097 -9.4724,17.90426 18.1009,-7.38597 0.506,21.27998 -2.4833,15.33929 z m 768.9656,-645.0711 c -15.25309,-5.91682 -14.43433,-33.9551752 -32.9757,-27.03668 -11.32776,-6.4260284 -12.21654,-33.613589 -33.0786,-24.59142 -20.11998,2.3389096 -35.38683,3.9561923 -7.66136,-11.77846 1.41739,-11.97738 8.56916,-28.445724 -0.75656,-40.896498 -5.80072,-14.031607 -17.2264,-18.247497 -29.74727,-23.055341 -13.33427,-6.090869 -19.4611,-20.833041 -24.59493,-34.127951 -11.03354,-20.51185 25.54462,-17.73478 17.60124,-25.60514 18.52497,-3.88434 27.13993,15.82645 43.49758,18.17841 28.74257,12.68017 -5.74554,-13.71447 3.03056,-13.35599 15.6459,5.54226 22.18204,22.96544 36.94374,28.04384 9.56553,24.484393 17.05846,26.957869 34.62535,47.794976 14.52951,6.660013 14.19049,18.082479 14.20635,33.084684 -11.33573,5.281481 -6.20888,29.51038084 -19.0891,37.35402 -2.37301,12.821534 13.03933,34.808963 4.209,42.73707 -2.0667,-2.246957 -4.15846,-4.505096 -6.2103,-6.74552 z"
         id="path3027"
         inkscape:connector-curvature="0" />
    </g>
  </g>
</svg>
